# Blender v2.93.0 OBJ File: 'Consola.blend'
# www.blender.org
mtllib Consola.mtl
o Cube
v -0.050750 0.141734 -0.180354
v -0.050750 -0.014847 -0.180354
v -0.050750 0.141734 0.191754
v -0.050750 -0.014847 0.191754
v -0.387398 0.141734 -0.180354
v -0.387398 -0.014847 -0.180354
v -0.387398 0.141734 0.191754
v -0.387398 -0.014847 0.191754
v 0.138277 -0.011288 -0.015332
v 0.138277 0.011584 -0.015332
v 0.088842 -0.011288 -0.114557
v 0.088842 0.011584 -0.114557
v 0.182550 -0.011288 -0.037362
v 0.182550 0.011584 -0.037362
v 0.133116 -0.011288 -0.136587
v 0.133116 0.011584 -0.136587
v 0.125590 -0.014963 -0.063287
v 0.003429 -0.014963 0.084028
v 0.047263 -0.014963 -0.028793
v 0.081756 -0.014963 0.049534
v -0.013818 -0.014963 0.044864
v 0.086427 -0.014963 -0.046040
v 0.064510 -0.014963 0.010370
v 0.042593 -0.014963 0.066781
v -0.052982 -0.014963 0.062111
v 0.066845 -0.014963 -0.037417
v 0.055886 -0.014963 -0.009212
v 0.023011 -0.014963 0.075405
v -0.005195 -0.014963 0.064446
v 0.027681 -0.014963 -0.020170
v 0.116967 -0.014963 -0.082869
v 0.106008 -0.014963 -0.054664
v 0.073133 -0.014963 0.029952
v 0.062175 -0.014963 0.058158
v -0.016153 -0.014963 0.092651
v 0.038639 -0.014963 -0.048375
v 0.077803 -0.014963 -0.065622
v 0.033969 -0.014963 0.047199
v 0.044928 -0.014963 0.018994
v -0.044358 -0.014963 0.081693
v -0.072564 -0.014963 0.070735
v -0.033400 -0.014963 0.053488
v -0.024777 -0.014963 0.073070
v -0.063940 -0.014963 0.090316
v 0.075468 -0.014963 -0.017835
v 0.053551 -0.014963 0.038576
v 0.014387 -0.014963 0.055823
v 0.097385 -0.014963 -0.074246
v 0.058221 -0.014963 -0.056999
v 0.036304 -0.014963 -0.000588
vt 0.561879 0.580124
vt 0.561879 0.719476
vt 0.423581 0.718861
vt 0.423581 0.579509
vt 0.335762 0.579704
vt 0.421003 0.579704
vt 0.421003 0.719262
vt 0.335762 0.719262
vt 0.422428 0.774059
vt 0.422428 0.719159
vt 0.561197 0.719159
vt 0.561197 0.774059
vt 0.446964 0.806462
vt 0.521195 0.806462
vt 0.521195 0.880693
vt 0.446964 0.880693
vt 0.560844 0.511257
vt 0.560844 0.577331
vt 0.423161 0.577331
vt 0.423161 0.511257
vt 0.650119 0.717630
vt 0.563744 0.717630
vt 0.563744 0.577048
vt 0.650119 0.577048
vt 0.531582 0.421475
vt 0.531582 0.393000
vt 0.655914 0.393000
vt 0.655914 0.421475
vt 0.656677 0.329773
vt 0.686829 0.329773
vt 0.686829 0.390442
vt 0.656677 0.390442
vt 0.532676 0.297234
vt 0.654859 0.297234
vt 0.654859 0.327445
vt 0.532676 0.327445
vt 0.500627 0.328459
vt 0.530675 0.328459
vt 0.530675 0.390805
vt 0.500627 0.390805
vt 0.474965 0.815861
vt 0.505595 0.815861
vt 0.505595 0.846491
vt 0.474965 0.846491
vt 0.655622 0.328522
vt 0.655622 0.390970
vt 0.531163 0.390970
vt 0.531163 0.328522
vt 0.472304 0.492638
vt 0.472349 0.489674
vt 0.475313 0.489720
vt 0.475268 0.492684
vt 0.466376 0.492547
vt 0.466422 0.489583
vt 0.469385 0.489629
vt 0.469340 0.492593
vt 0.466103 0.510331
vt 0.466149 0.507367
vt 0.469113 0.507412
vt 0.469067 0.510376
vt 0.466194 0.504403
vt 0.466240 0.501439
vt 0.469203 0.501485
vt 0.469158 0.504449
vt 0.463230 0.504358
vt 0.463276 0.501394
vt 0.472395 0.486711
vt 0.475359 0.486756
vt 0.463367 0.495466
vt 0.463412 0.492502
vt 0.466331 0.495511
vt 0.463458 0.489538
vt 0.463321 0.498430
vt 0.466285 0.498475
vt 0.475404 0.483792
vt 0.475450 0.480828
vt 0.478414 0.480874
vt 0.478368 0.483838
vt 0.475495 0.477864
vt 0.478459 0.477910
vt 0.478323 0.486802
vt 0.478277 0.489765
vn 0.0000 1.0000 0.0000
vn 0.0000 0.0000 1.0000
vn -1.0000 0.0000 0.0000
vn 0.0000 -1.0000 0.0000
vn 1.0000 0.0000 0.0000
vn 0.0000 0.0000 -1.0000
vn -0.8951 0.0000 0.4459
vn -0.4455 0.0000 -0.8953
vn 0.8951 0.0000 -0.4459
vn 0.4455 0.0000 0.8953
usemtl Material
s off
f 1/1/1 5/2/1 7/3/1 3/4/1
f 4/5/2 3/6/2 7/7/2 8/8/2
f 8/9/3 7/10/3 5/11/3 6/12/3
f 6/13/4 2/14/4 4/15/4 8/16/4
f 2/17/5 1/18/5 3/19/5 4/20/5
f 6/21/6 5/22/6 1/23/6 2/24/6
f 9/25/7 10/26/7 12/27/7 11/28/7
f 11/29/8 12/30/8 16/31/8 15/32/8
f 15/33/9 16/34/9 14/35/9 13/36/9
f 13/37/10 14/38/10 10/39/10 9/40/10
f 11/41/4 15/42/4 13/43/4 9/44/4
f 16/45/1 12/46/1 10/47/1 14/48/1
f 50/49/1 27/50/1 19/51/1 30/52/1
f 46/53/1 33/54/1 23/55/1 39/56/1
f 44/57/1 40/58/1 25/59/1 41/60/1
f 43/61/1 29/62/1 21/63/1 42/64/1
f 40/58/1 43/61/1 42/64/1 25/59/1
f 35/65/1 18/66/1 29/62/1 43/61/1
f 27/50/1 45/67/1 26/68/1 19/51/1
f 24/69/1 34/70/1 46/53/1 38/71/1
f 34/70/1 20/72/1 33/54/1 46/53/1
f 18/66/1 28/73/1 47/74/1 29/62/1
f 28/73/1 24/69/1 38/71/1 47/74/1
f 22/75/1 32/76/1 48/77/1 37/78/1
f 32/76/1 17/79/1 31/80/1 48/77/1
f 19/51/1 26/68/1 49/81/1 36/82/1
f 26/68/1 22/75/1 37/78/1 49/81/1
f 39/56/1 23/55/1 27/50/1 50/49/1
