# Blender v2.93.0 OBJ File: 'Librero.blend'
# www.blender.org
mtllib Librero.mtl
o Cube
v 2.000000 3.000000 -0.800000
v 2.000000 -3.000000 -0.800000
v 2.000000 3.000000 0.800000
v 2.000000 -3.000000 0.800000
v -2.000000 3.000000 -0.800000
v -2.000000 -3.000000 -0.800000
v -2.000000 3.000000 0.800000
v -2.000000 -3.000000 0.800000
vt 0.697266 0.527559
vt 0.285156 0.527559
vt 0.285156 0.465551
vt 0.697266 0.465551
vt 0.702985 0.201189
vt 0.702985 0.468287
vt 0.282115 0.468287
vt 0.282115 0.201189
vt 0.282988 0.207311
vt 0.282988 0.467662
vt 0.084532 0.467662
vt 0.084532 0.207311
vt 0.687500 0.135827
vt 0.687500 0.205709
vt 0.300781 0.205709
vt 0.300781 0.135827
vt 0.896866 0.202379
vt 0.896866 0.465175
vt 0.706936 0.465175
vt 0.706936 0.202379
vt 0.375000 0.542169
vt 0.625000 0.542169
vt 0.625000 0.792169
vt 0.375000 0.792169
vn 0.0000 1.0000 0.0000
vn 0.0000 0.0000 1.0000
vn -1.0000 0.0000 0.0000
vn 0.0000 -1.0000 0.0000
vn 1.0000 0.0000 0.0000
vn 0.0000 0.0000 -1.0000
usemtl Material
s off
f 1/1/1 5/2/1 7/3/1 3/4/1
f 4/5/2 3/6/2 7/7/2 8/8/2
f 8/9/3 7/10/3 5/11/3 6/12/3
f 6/13/4 2/14/4 4/15/4 8/16/4
f 2/17/5 1/18/5 3/19/5 4/20/5
f 6/21/6 5/22/6 1/23/6 2/24/6
