# Blender v2.93.0 OBJ File: 'Papelera.blend'
# www.blender.org
mtllib Papelera.mtl
o Circle
v -0.151354 0.600000 -0.262152
v -0.000000 0.600000 -0.302707
v -0.262152 0.600000 -0.151354
v -0.302707 0.600000 0.000000
v -0.262152 0.600000 0.151354
v -0.151354 0.600000 0.262152
v 0.000000 0.600000 0.302707
v 0.151354 0.600000 0.262152
v 0.262152 0.600000 0.151354
v 0.302707 0.600000 -0.000000
v 0.262152 0.600000 -0.151354
v 0.151354 0.600000 -0.262152
v -0.175000 0.600000 -0.303109
v 0.000000 0.600000 -0.350000
v -0.303109 0.600000 -0.175000
v -0.350000 0.600000 0.000000
v -0.303109 0.600000 0.175000
v -0.175000 0.600000 0.303109
v 0.000000 0.600000 0.350000
v 0.175000 0.600000 0.303109
v 0.303109 0.600000 0.175000
v 0.350000 0.600000 -0.000000
v 0.303109 0.600000 -0.175000
v 0.175000 0.600000 -0.303109
v -0.151354 0.600000 -0.262152
v -0.000000 0.600000 -0.302707
v -0.262152 0.600000 -0.151354
v -0.302707 0.600000 0.000000
v -0.262152 0.600000 0.151354
v -0.151354 0.600000 0.262152
v 0.000000 0.600000 0.302707
v 0.151354 0.600000 0.262152
v 0.262152 0.600000 0.151354
v 0.302707 0.600000 -0.000000
v 0.262152 0.600000 -0.151354
v 0.151354 0.600000 -0.262152
v -0.151354 0.278255 -0.262152
v -0.107862 0.134221 -0.186822
v -0.000000 0.134221 -0.215724
v -0.000000 0.278255 -0.302707
v -0.262152 0.278255 -0.151354
v -0.186822 0.134221 -0.107862
v -0.302707 0.278255 0.000000
v -0.215724 0.134221 0.000000
v -0.262152 0.278255 0.151354
v -0.186822 0.134221 0.107862
v -0.151354 0.278255 0.262152
v -0.107862 0.134221 0.186822
v 0.000000 0.278255 0.302707
v -0.000000 0.134221 0.215724
v 0.151354 0.278255 0.262152
v 0.107862 0.134221 0.186822
v 0.262152 0.278255 0.151354
v 0.186822 0.134221 0.107862
v 0.302707 0.278255 -0.000000
v 0.215724 0.134221 -0.000000
v 0.262152 0.278255 -0.151354
v 0.186822 0.134221 -0.107862
v 0.151354 0.278255 -0.262152
v 0.107862 0.134221 -0.186822
v 0.000000 0.027383 -0.350000
v -0.000000 0.000000 -0.333463
v -0.000000 0.008020 -0.345156
v -0.166732 0.000000 -0.288788
v -0.175000 0.027383 -0.303109
v -0.172578 0.008020 -0.298914
v -0.288788 0.000000 -0.166732
v -0.303109 0.027383 -0.175000
v -0.298914 0.008020 -0.172578
v -0.333463 0.000000 0.000000
v -0.350000 0.027383 0.000000
v -0.345156 0.008020 0.000000
v -0.288788 0.000000 0.166732
v -0.303109 0.027383 0.175000
v -0.298914 0.008020 0.172578
v -0.166732 0.000000 0.288788
v -0.175000 0.027383 0.303109
v -0.172578 0.008020 0.298914
v 0.000000 0.000000 0.333463
v 0.000000 0.027383 0.350000
v 0.000000 0.008020 0.345156
v 0.166732 0.000000 0.288788
v 0.175000 0.027383 0.303109
v 0.172578 0.008020 0.298914
v 0.288788 0.000000 0.166732
v 0.303109 0.027383 0.175000
v 0.298914 0.008020 0.172578
v 0.333463 0.000000 -0.000000
v 0.350000 0.027383 -0.000000
v 0.345156 0.008020 -0.000000
v 0.288788 0.000000 -0.166732
v 0.303109 0.027383 -0.175000
v 0.298914 0.008020 -0.172578
v 0.166732 0.000000 -0.288788
v 0.175000 0.027383 -0.303109
v 0.172578 0.008020 -0.298914
vt 0.879885 0.051275
vt 0.797295 0.082814
vt 0.934138 0.409910
vt 0.976968 0.056465
vt 0.437500 0.378906
vt 0.796875 0.244141
vt 0.437500 0.378906
vt 0.437500 0.378906
vt 0.589914 0.431297
vt 0.684470 0.493311
vt 0.662278 0.713749
vt 0.600271 0.619187
vt 0.776124 0.288641
vt 0.858807 0.210603
vt 0.931865 0.305738
vt 0.870077 0.850065
vt 0.867106 0.877068
vt 0.867026 0.878861
vt 0.867018 0.879589
vt 0.867051 0.879846
vt 0.867187 0.879789
vt 0.872176 0.881153
vt 0.974344 0.922058
vt 0.800981 0.932200
vt 0.280789 0.884077
vt 0.335045 0.898800
vt 0.332087 0.975732
vt 0.277830 0.977282
vt 0.438979 0.523892
vt 0.349499 0.539465
vt 0.389444 0.395958
vt 0.437500 0.378906
vt 0.769647 0.619858
vt 0.802200 0.904809
vt 0.958461 0.431069
vt 0.865025 0.380355
vt 0.991883 0.924432
vt 0.983006 0.459886
vt 0.574683 0.900969
vt 0.576233 0.814724
vt 0.527411 0.819162
vt 0.525861 0.893571
vt 0.425664 0.504659
vt 0.376270 0.402359
vt 0.392544 0.341701
vt 0.437500 0.378906
vt 0.706357 0.462464
vt 0.535021 0.465890
vt 0.532062 0.631588
vt 0.659015 0.678463
vt 0.715545 0.435876
vt 0.536147 0.424563
vt 0.544463 0.650190
vt 0.694833 0.622287
vt 0.058056 0.326591
vt 0.188343 0.328913
vt 0.197220 0.515323
vt 0.065453 0.529275
vt 0.960138 0.357249
vt 0.897638 0.462718
vt 0.824074 0.685845
vt 0.790615 0.355552
vt 0.820398 0.555629
vt 0.783289 0.831019
vt 0.820398 0.555629
vt 0.947352 0.602504
vt 0.820398 0.555629
vt 0.820398 0.555629
vt 0.670029 0.461067
vt 0.670029 0.461067
vt 0.670029 0.461067
vt 0.670029 0.461067
vt 0.690182 0.416111
vt 0.690182 0.416111
vt 0.690182 0.416111
vt 0.690182 0.416111
vt 0.383243 0.299846
vt 0.383243 0.299846
vt 0.383243 0.299846
vt 0.383243 0.299846
vt 0.383243 0.299846
vt 0.383243 0.299846
vt 0.383243 0.299846
vt 0.383243 0.299846
vt 0.400295 0.406810
vt 0.437500 0.481219
vt 0.398745 0.507572
vt 0.372392 0.468818
vt 0.651427 0.307597
vt 0.651427 0.307597
vt 0.651427 0.307597
vt 0.651427 0.307597
vt 0.643405 0.695248
vt 0.570817 0.704447
vt 0.566166 0.822262
vt 0.645801 0.840865
vt 0.808348 0.991750
vt 0.772545 0.984894
vt 0.769439 0.961132
vt 0.805192 0.966021
vt 0.859375 0.138672
vt 0.437500 0.378906
vt 0.437500 0.378906
vt 0.628906 0.785156
vt 0.437500 0.378906
vt 0.437500 0.378906
vt 0.437500 0.378906
vt 0.437500 0.378906
vt 0.437500 0.378906
vt 0.437500 0.378906
vt 0.437500 0.378906
vt 0.437500 0.378906
vt 0.437500 0.378906
vt 0.437500 0.378906
vt 0.437500 0.378906
vt 0.437500 0.378906
vt 0.437500 0.378906
vt 0.437500 0.378906
vt 0.437500 0.378906
vt 0.437500 0.378906
vt 0.442551 0.895146
vt 0.336291 0.789530
vt 0.342132 0.844248
vt 0.380122 0.729179
vt 0.398852 0.948167
vt 0.343098 0.768854
vt 0.459744 0.420703
vt 0.357610 0.448142
vt 0.458858 0.400525
vt 0.401539 0.659814
vt 0.855065 0.337728
vt 0.817083 0.696641
vt 0.820726 0.572223
vt 0.904663 0.367898
vt 0.893460 0.524486
vt 0.808018 0.184110
vt 0.862992 0.527164
vt 0.820751 0.261930
vt 0.423656 0.765244
vt 0.376978 0.278599
vt 0.459079 0.497680
vt 0.367901 0.585931
vt 0.941855 0.526117
vt 0.883650 0.765227
vt 0.851996 0.752319
vt 0.890743 0.739905
vt 0.871491 0.971536
vt 0.898259 0.901839
vt 0.846917 0.341767
vt 0.840084 0.981807
vt 0.880196 0.598249
vt 0.860591 0.665679
vt 0.864205 0.619417
vt 0.901034 0.551241
vt 0.855062 0.325044
vt 0.836201 0.337204
vt 0.872831 0.556047
vt 0.894942 0.608683
vt 0.894301 0.508480
vt 0.861804 0.562948
vt 0.877716 0.672491
vt 0.915796 0.580702
vt 0.398085 0.492836
vt 0.433685 0.475289
vt 0.404925 0.546256
vt 0.378480 0.560266
vt 0.366935 0.661325
vt 0.382094 0.514004
vt 0.850012 0.691345
vt 0.941190 0.603094
vt 0.824233 0.219685
vt 0.825724 0.857763
vt 0.823933 0.091043
vt 0.788201 0.144393
vt 0.940969 0.505938
vt 0.332806 0.631065
vt 0.434054 0.583448
vt 0.790573 0.071076
vt 0.765264 0.627408
vt 0.767275 0.240255
vt 0.858321 0.182293
vt 0.765292 0.633361
vt 0.794523 0.925415
vt 0.789915 0.971975
vt 0.766799 0.245757
vt 0.796095 0.927597
vt 0.990940 0.946514
vt 0.992447 0.931463
vt 0.791487 0.976752
vt 0.707421 0.452175
vt 0.536362 0.457926
vt 0.867783 0.884594
vt 0.992979 0.930821
vt 0.590084 0.422730
vt 0.684866 0.482351
vt 0.866904 0.884270
vt 0.866904 0.884270
vt 0.438417 0.530933
vt 0.348221 0.546220
vt 0.866904 0.884270
vt 0.424755 0.509943
vt 0.375835 0.405989
vt 0.866904 0.884270
vt 0.058603 0.316920
vt 0.187017 0.319977
vt 0.866904 0.884270
vt 0.313343 0.644568
vt 0.333495 0.490327
vt 0.408422 0.538684
vt 0.413872 0.687288
vt 0.866904 0.884270
vt 0.577028 0.900722
vt 0.578557 0.815112
vt 0.866904 0.884270
vt 0.715284 0.426871
vt 0.537001 0.413864
vt 0.941382 0.269240
vt 0.867423 0.879985
vt 0.874658 0.051139
vt 0.791335 0.067060
vt 0.859533 0.182461
vt 0.941327 0.264380
vn 0.2588 0.0000 -0.9659
vn 0.0000 0.0000 1.0000
vn -0.7071 0.0000 0.7071
vn 0.0000 -1.0000 0.0000
vn 0.9659 0.0000 0.2588
vn -0.2588 0.0000 0.9659
vn -0.7071 0.0000 -0.7071
vn -0.9659 0.0000 -0.2588
vn 0.9659 0.0000 -0.2588
vn 0.2588 0.0000 0.9659
vn -0.9659 0.0000 0.2588
vn 0.7071 0.0000 -0.7071
vn 0.7071 0.0000 0.7071
vn 0.0000 1.0000 0.0000
vn -0.2588 0.0000 -0.9659
vn 0.2236 0.5039 0.8343
vn 0.6108 0.5039 0.6108
vn 0.8343 0.5039 0.2236
vn 0.8343 0.5039 -0.2236
vn 0.6108 0.5039 -0.6108
vn 0.2236 0.5039 -0.8343
vn -0.2236 0.5039 -0.8343
vn -0.6108 0.5039 -0.6108
vn -0.8343 0.5039 -0.2236
vn -0.8343 0.5039 0.2236
vn -0.6108 0.5039 0.6108
vn -0.2236 0.5039 0.8343
vn -0.2516 -0.2349 -0.9389
vn -0.1498 -0.8154 -0.5592
vn -0.6873 -0.2349 -0.6873
vn -0.4094 -0.8154 -0.4094
vn -0.9389 -0.2349 -0.2516
vn -0.5592 -0.8154 -0.1498
vn -0.9389 -0.2349 0.2516
vn -0.5592 -0.8154 0.1498
vn -0.6873 -0.2349 0.6873
vn -0.4094 -0.8154 0.4094
vn -0.2516 -0.2349 0.9389
vn -0.1498 -0.8154 0.5592
vn 0.2516 -0.2349 0.9389
vn 0.1498 -0.8154 0.5592
vn 0.6873 -0.2349 0.6873
vn 0.4094 -0.8154 0.4094
vn 0.9389 -0.2349 0.2516
vn 0.5592 -0.8154 0.1498
vn 0.9389 -0.2349 -0.2516
vn 0.5592 -0.8154 -0.1498
vn 0.6873 -0.2349 -0.6873
vn 0.4094 -0.8154 -0.4094
vn 0.2516 -0.2349 -0.9389
vn 0.1498 -0.8154 -0.5592
usemtl Material.001
s off
f 95/1/1 61/2/1 14/3/1 24/4/1
f 12/5/2 2/6/2 26/7/2 36/8/2
f 74/9/3 77/10/3 18/11/3 17/12/3
f 64/13/4 62/14/4 94/15/4 91/16/4 88/17/4 85/18/4 82/19/4 79/20/4 76/21/4 73/22/4 70/23/4 67/24/4
f 86/25/5 89/26/5 22/27/5 21/28/5
f 77/29/6 80/30/6 19/31/6 18/32/6
f 65/33/7 68/34/7 15/35/7 13/36/7
f 68/34/8 71/37/8 16/38/8 15/35/8
f 89/39/9 92/40/9 23/41/9 22/42/9
f 80/43/10 83/44/10 20/45/10 19/46/10
f 71/47/11 74/48/11 17/49/11 16/50/11
f 92/51/12 95/52/12 24/53/12 23/54/12
f 83/55/13 86/56/13 21/57/13 20/58/13
f 1/59/14 2/60/14 14/61/14 13/62/14
f 3/63/14 1/59/14 13/62/14 15/64/14
f 4/65/14 3/63/14 15/64/14 16/66/14
f 5/67/14 4/65/14 16/66/14 17/68/14
f 6/69/14 5/70/14 17/71/14 18/72/14
f 7/73/14 6/74/14 18/75/14 19/76/14
f 8/77/14 7/78/14 19/79/14 20/80/14
f 9/81/14 8/77/14 20/80/14 21/82/14
f 10/83/14 9/81/14 21/82/14 22/84/14
f 11/85/14 10/86/14 22/87/14 23/88/14
f 12/89/14 11/90/14 23/91/14 24/92/14
f 2/93/14 12/94/14 24/95/14 14/96/14
f 30/97/1 31/98/1 49/99/1 47/100/1
f 1/101/2 3/102/2 27/103/2 25/104/2
f 9/105/2 10/106/2 34/107/2 33/108/2
f 6/109/2 7/110/2 31/111/2 30/112/2
f 3/102/2 4/113/2 28/114/2 27/103/2
f 10/106/2 11/115/2 35/116/2 34/107/2
f 7/110/2 8/117/2 32/118/2 31/111/2
f 4/113/2 5/119/2 29/120/2 28/114/2
f 11/115/2 12/5/2 36/8/2 35/116/2
f 2/6/2 1/101/2 25/104/2 26/7/2
f 8/117/2 9/105/2 33/108/2 32/118/2
f 5/119/2 6/109/2 30/112/2 29/120/2
f 25/121/13 27/122/13 41/123/13 37/124/13
f 27/122/5 28/125/5 43/126/5 41/123/5
f 36/127/6 26/128/6 40/129/6 59/130/6
f 34/131/11 35/132/11 57/133/11 55/134/11
f 31/135/15 32/136/15 51/137/15 49/138/15
f 28/139/9 29/140/9 45/141/9 43/142/9
f 35/132/3 36/143/3 59/144/3 57/133/3
f 32/136/7 33/145/7 53/146/7 51/137/7
f 29/147/12 30/148/12 47/149/12 45/150/12
f 38/151/14 42/152/14 44/153/14 46/154/14 48/155/14 50/156/14 52/157/14 54/158/14 56/159/14 58/160/14 60/161/14 39/162/14
f 33/145/8 34/131/8 55/134/8 53/146/8
f 38/163/16 39/164/16 40/129/16 37/165/16
f 42/166/17 38/163/17 37/165/17 41/167/17
f 44/168/18 42/166/18 41/167/18 43/142/18
f 46/154/19 44/153/19 43/169/19 45/170/19
f 48/171/20 46/172/20 45/150/20 47/149/20
f 50/156/21 48/155/21 47/173/21 49/174/21
f 52/157/22 50/156/22 49/138/22 51/137/22
f 54/158/23 52/157/23 51/137/23 53/146/23
f 56/159/24 54/158/24 53/146/24 55/134/24
f 58/160/25 56/159/25 55/134/25 57/133/25
f 60/161/26 58/160/26 57/133/26 59/144/26
f 39/162/27 60/161/27 59/144/27 40/175/27
f 26/176/10 25/121/10 37/124/10 40/177/10
f 65/33/28 61/2/28 63/178/28 66/179/28
f 66/180/29 63/181/29 62/14/29 64/13/29
f 68/34/30 65/33/30 66/182/30 69/183/30
f 69/184/31 66/185/31 64/13/31 67/24/31
f 71/37/32 68/34/32 69/186/32 72/187/32
f 72/188/33 69/189/33 67/24/33 70/23/33
f 74/48/34 71/47/34 72/190/34 75/191/34
f 75/192/35 72/193/35 70/23/35 73/22/35
f 77/10/36 74/9/36 75/194/36 78/195/36
f 78/196/37 75/197/37 73/22/37 76/21/37
f 80/30/38 77/29/38 78/198/38 81/199/38
f 81/200/39 78/196/39 76/21/39 79/20/39
f 83/44/40 80/43/40 81/201/40 84/202/40
f 84/203/41 81/200/41 79/20/41 82/19/41
f 86/56/42 83/55/42 84/204/42 87/205/42
f 87/206/43 84/203/43 82/19/43 85/18/43
f 89/207/44 86/208/44 87/209/44 90/210/44
f 90/211/45 87/206/45 85/18/45 88/17/45
f 92/40/46 89/39/46 90/212/46 93/213/46
f 93/214/47 90/211/47 88/17/47 91/16/47
f 95/52/48 92/51/48 93/215/48 96/216/48
f 96/217/49 93/218/49 91/16/49 94/15/49
f 61/2/50 95/1/50 96/219/50 63/220/50
f 63/221/51 96/222/51 94/15/51 62/14/51
f 61/2/15 65/33/15 13/36/15 14/3/15
