# Blender v2.93.0 OBJ File: 'SlideDoor.blend'
# www.blender.org
mtllib SlideDoor.mtl
o Cube_Cube.006
v -1.680264 -1.755012 0.072454
v -1.680264 1.755012 0.072454
v -1.680264 -1.755012 -0.072454
v -1.680264 1.755012 -0.072454
v 1.680264 -1.755012 0.072454
v 1.680264 1.755012 0.072454
v 1.680264 -1.755012 -0.072454
v 1.680264 1.755012 -0.072454
vt 0.551512 0.436560
vt 0.551512 0.474892
vt 0.551512 0.474892
vt 0.551512 0.436560
vt 0.032951 0.110966
vt 0.558559 0.110966
vt 0.558559 0.920794
vt 0.032951 0.920794
vt 0.588211 0.436560
vt 0.588211 0.474892
vt 0.588211 0.474892
vt 0.588211 0.436560
vt 0.033498 0.113169
vt 0.561020 0.113169
vt 0.561020 0.919809
vt 0.033498 0.919809
vn -1.0000 0.0000 0.0000
vn 0.0000 0.0000 -1.0000
vn 1.0000 0.0000 0.0000
vn 0.0000 0.0000 1.0000
vn 0.0000 -1.0000 0.0000
vn 0.0000 1.0000 0.0000
usemtl Material.029
s off
f 1/1/1 2/2/1 4/3/1 3/4/1
f 3/5/2 4/6/2 8/7/2 7/8/2
f 7/9/3 8/10/3 6/11/3 5/12/3
f 5/13/4 6/14/4 2/15/4 1/16/4
f 3/4/5 7/9/5 5/12/5 1/1/5
f 8/10/6 4/3/6 2/2/6 6/11/6
