# Blender v2.93.0 OBJ File: 'Television.blend'
# www.blender.org
mtllib Television.mtl
o Cube
v 0.354170 0.273035 -0.382357
v 0.354170 -0.292415 -0.382357
v 0.457078 0.457078 0.382357
v 0.457078 -0.457078 0.382357
v -0.354170 0.273035 -0.382357
v -0.354170 -0.292415 -0.382357
v -0.457078 0.457078 0.382357
v -0.457078 -0.457078 0.382357
v 0.457078 -0.457078 -0.382357
v -0.457078 -0.457078 -0.382357
v 0.457078 0.457078 -0.382357
v -0.457078 0.457078 -0.382357
v -0.354170 0.273035 -0.382357
v -0.354170 -0.292415 -0.382357
v 0.354170 -0.292415 -0.490799
v -0.354170 -0.292415 -0.490799
v 0.354170 0.273035 -0.490799
v -0.354170 0.273035 -0.490799
vt 0.445031 0.648373
vt 0.359645 0.648373
vt 0.359645 0.594014
vt 0.445031 0.594014
vt 0.444785 0.515420
vt 0.444785 0.594199
vt 0.359902 0.594199
vt 0.359902 0.515420
vt 0.359383 0.516428
vt 0.359383 0.593487
vt 0.304868 0.593487
vt 0.304868 0.516428
vt 0.359952 0.461052
vt 0.444980 0.461052
vt 0.444980 0.515999
vt 0.359952 0.515999
vt 0.499747 0.515646
vt 0.499747 0.593157
vt 0.445301 0.593157
vt 0.445301 0.515646
vt 0.615396 0.540920
vt 0.554350 0.540920
vt 0.554350 0.552092
vt 0.615396 0.552092
vt 0.560915 0.489744
vt 0.560915 0.618248
vt 0.532772 0.646391
vt 0.532772 0.461602
vt 0.611289 0.618248
vt 0.639431 0.646391
vt 0.611289 0.489745
vt 0.639431 0.461602
vt 0.403143 0.278143
vt 0.596857 0.278143
vt 0.596857 0.278143
vt 0.403143 0.278143
vt 0.560915 0.489744
vt 0.611289 0.489745
vt 0.611289 0.618248
vt 0.560915 0.618248
vt 0.554350 0.540920
vt 0.615396 0.540920
vt 0.615396 0.552092
vt 0.554350 0.552092
vt 0.579287 0.570872
vt 0.579287 0.522140
vt 0.590459 0.522140
vt 0.590459 0.570872
vt 0.579287 0.522140
vt 0.579287 0.570872
vt 0.590459 0.570872
vt 0.590459 0.522140
vn 0.0000 1.0000 0.0000
vn 0.0000 0.0000 1.0000
vn -1.0000 0.0000 0.0000
vn 0.0000 -1.0000 0.0000
vn 1.0000 0.0000 0.0000
vn 0.0000 0.0000 -1.0000
usemtl Material
s off
f 11/1/1 12/2/1 7/3/1 3/4/1
f 4/5/2 3/6/2 7/7/2 8/8/2
f 8/9/3 7/10/3 12/11/3 10/12/3
f 10/13/4 9/14/4 4/15/4 8/16/4
f 9/17/5 11/18/5 3/19/5 4/20/5
f 2/21/4 6/22/4 16/23/4 15/24/4
f 6/25/6 2/26/6 9/27/6 10/28/6
f 2/26/6 1/29/6 11/30/6 9/27/6
f 5/31/6 6/25/6 10/28/6 12/32/6
f 1/29/6 5/31/6 12/32/6 11/30/6
f 6/33/2 5/34/2 13/35/2 14/36/2
f 16/37/6 18/38/6 17/39/6 15/40/6
f 5/41/1 1/42/1 17/43/1 18/44/1
f 1/45/5 2/46/5 15/47/5 17/48/5
f 6/49/3 5/50/3 18/51/3 16/52/3
