# Blender v2.93.0 OBJ File: 'Ventilador.blend'
# www.blender.org
mtllib Ventilador.mtl
o Cube
v -0.243476 -0.389051 0.000000
v -0.486951 -0.389051 -0.161591
v 0.243476 -0.389051 -0.323183
v 0.000000 -0.389051 0.000000
v 0.486951 -0.389051 0.000000
v 0.000000 -0.389051 0.323183
v 0.000000 -0.389051 -0.323183
v -0.486951 -0.389051 0.000000
v 0.486951 0.347919 -0.361390
v 0.486951 0.389051 -0.323183
v 0.544520 0.347919 -0.323183
v 0.486951 0.368458 -0.356286
v 0.515698 0.347919 -0.356286
v 0.514481 0.367589 -0.351328
v 0.515698 0.383556 -0.323183
v 0.486951 0.383556 -0.342262
v 0.514481 0.378218 -0.341454
v 0.536829 0.347919 -0.342262
v 0.536829 0.368458 -0.323183
v 0.529358 0.367589 -0.341454
v 0.486951 -0.389051 -0.323183
v 0.486951 -0.347919 -0.361390
v 0.544520 -0.347919 -0.323183
v 0.486951 -0.383556 -0.342262
v 0.515698 -0.383556 -0.323183
v 0.514481 -0.378218 -0.341454
v 0.515698 -0.347919 -0.356286
v 0.486951 -0.368458 -0.356286
v 0.514481 -0.367589 -0.351328
v 0.536829 -0.368458 -0.323183
v 0.536829 -0.347919 -0.342262
v 0.529358 -0.367589 -0.341454
v 0.544520 0.347919 0.323183
v 0.486951 0.389051 0.323183
v 0.486951 0.347919 0.361390
v 0.536829 0.368458 0.323183
v 0.536829 0.347919 0.342262
v 0.529358 0.367589 0.341454
v 0.486951 0.383556 0.342262
v 0.515698 0.383556 0.323183
v 0.514481 0.378218 0.341454
v 0.515698 0.347919 0.356286
v 0.486951 0.368458 0.356286
v 0.514481 0.367589 0.351328
v 0.544520 -0.347919 0.323183
v 0.486951 -0.347919 0.361390
v 0.486951 -0.389051 0.323183
v 0.536829 -0.347919 0.342262
v 0.536829 -0.368458 0.323183
v 0.529358 -0.367589 0.341454
v 0.486951 -0.368458 0.356286
v 0.515698 -0.347919 0.356286
v 0.514481 -0.367589 0.351328
v 0.515698 -0.383556 0.323183
v 0.486951 -0.383556 0.342262
v 0.514481 -0.378218 0.341454
v -0.486951 0.347919 -0.361390
v -0.544520 0.347919 -0.323183
v -0.486951 0.389051 -0.323183
v -0.515698 0.347919 -0.356286
v -0.486951 0.368458 -0.356286
v -0.514481 0.367589 -0.351328
v -0.536829 0.368458 -0.323183
v -0.536829 0.347919 -0.342262
v -0.529358 0.367589 -0.341454
v -0.486951 0.383556 -0.342262
v -0.515698 0.383556 -0.323183
v -0.514481 0.378218 -0.341454
v -0.544520 -0.347919 -0.323183
v -0.486951 -0.347919 -0.361390
v -0.486951 -0.389051 -0.323183
v -0.536829 -0.347919 -0.342262
v -0.536829 -0.368458 -0.323183
v -0.529358 -0.367589 -0.341454
v -0.486951 -0.368458 -0.356286
v -0.515698 -0.347919 -0.356286
v -0.514481 -0.367589 -0.351328
v -0.515698 -0.383556 -0.323183
v -0.486951 -0.383556 -0.342262
v -0.514481 -0.378218 -0.341454
v -0.544520 0.347919 0.323183
v -0.486951 0.347919 0.361390
v -0.486951 0.389051 0.323183
v -0.536829 0.347919 0.342262
v -0.536829 0.368458 0.323183
v -0.529358 0.367589 0.341454
v -0.486951 0.368458 0.356286
v -0.515698 0.347919 0.356286
v -0.514481 0.367589 0.351328
v -0.515698 0.383556 0.323183
v -0.486951 0.383556 0.342262
v -0.514481 0.378218 0.341454
v -0.486951 -0.389051 0.323183
v -0.486951 -0.347919 0.361390
v -0.544520 -0.347919 0.323183
v -0.486951 -0.383556 0.342262
v -0.515698 -0.383556 0.323183
v -0.514481 -0.378218 0.341454
v -0.515698 -0.347919 0.356286
v -0.486951 -0.368458 0.356286
v -0.514481 -0.367589 0.351328
v -0.536829 -0.368458 0.323183
v -0.536829 -0.347919 0.342262
v -0.529358 -0.367589 0.341454
v 0.486951 -0.389051 0.161591
v 0.000000 -0.389051 -0.161591
v 0.000000 -0.389051 0.161591
v -0.243476 -0.389051 0.323183
v 0.243476 -0.389051 0.000000
v -0.486951 -0.389051 0.161591
v -0.243476 -0.389051 -0.323183
v 0.243476 -0.389051 0.323183
v 0.486951 -0.389051 -0.161591
v 0.243476 -0.389051 -0.161591
v -0.243476 -0.389051 -0.161591
v -0.243476 -0.389051 0.161591
v 0.243476 -0.389051 0.161591
v 0.365213 -0.389051 -0.323183
v 0.486951 -0.389051 0.242387
v -0.486951 -0.389051 -0.242387
v -0.486951 -0.389051 0.242387
v -0.365213 -0.389051 -0.323183
v 0.365213 -0.389051 0.323183
v 0.486951 -0.389051 -0.242387
v -0.365213 -0.389051 0.323183
v 0.243476 -0.389051 -0.242387
v 0.365213 -0.389051 -0.161591
v -0.243476 -0.389051 -0.242387
v -0.365213 -0.389051 -0.161591
v -0.243476 -0.389051 0.242387
v -0.365213 -0.389051 0.161591
v 0.243476 -0.389051 0.242387
v 0.365213 -0.389051 0.161591
v -0.365213 -0.389051 0.242387
v -0.365213 -0.389051 -0.242387
v 0.365213 -0.389051 -0.242387
v 0.365213 -0.389051 0.242387
v -0.486951 -0.389051 0.282785
v -0.426082 -0.389051 -0.323183
v 0.426082 -0.389051 0.323183
v 0.486951 -0.389051 -0.282785
v 0.426082 -0.389051 -0.323183
v 0.486951 -0.389051 0.282785
v -0.486951 -0.389051 -0.282785
v -0.426082 -0.389051 0.323183
v -0.365213 -0.389051 0.282785
v -0.426082 -0.389051 0.242387
v -0.365213 -0.389051 -0.282785
v -0.426082 -0.389051 -0.242387
v 0.365213 -0.389051 -0.282785
v 0.426082 -0.389051 -0.242387
v 0.365213 -0.389051 0.282785
v 0.426082 -0.389051 0.242387
v 0.426082 -0.389051 -0.282785
v -0.426082 -0.389051 -0.282785
v -0.426082 -0.389051 0.282785
v 0.426082 -0.389051 0.282785
v 0.426082 -0.389051 -0.323183
v 0.365213 -0.389051 -0.323183
v -0.426082 -0.389051 0.323183
v -0.365213 -0.389051 0.323183
v -0.365213 -0.389051 0.282785
v 0.365213 -0.389051 0.282785
v 0.365213 -0.389051 0.323183
v -0.365213 -0.389051 -0.323183
v -0.426082 -0.389051 -0.323183
v 0.426082 -0.389051 0.323183
v -0.365213 -0.389051 -0.282785
v 0.365213 -0.389051 -0.282785
v 0.426082 -0.389051 -0.282785
v -0.426082 -0.389051 -0.282785
v -0.426082 -0.389051 0.282785
v 0.426082 -0.389051 0.282785
v 0.426082 -0.410151 -0.323183
v 0.365213 -0.410151 -0.323183
v -0.426082 -0.410151 0.323183
v -0.365213 -0.410151 0.323183
v -0.365213 -0.410151 0.282785
v 0.365213 -0.410151 0.282785
v 0.365213 -0.410151 0.323183
v -0.365213 -0.410151 -0.323183
v -0.426082 -0.410151 -0.323183
v 0.426082 -0.410151 0.323183
v -0.365213 -0.410151 -0.282785
v 0.365213 -0.410151 -0.282785
v 0.426082 -0.410151 -0.282785
v -0.426082 -0.410151 -0.282785
v -0.426082 -0.410151 0.282785
v 0.426082 -0.410151 0.282785
vt 0.772991 0.448360
vt 0.776390 0.448360
vt 0.776390 0.450616
vt 0.772991 0.450616
vt 0.702229 0.390747
vt 0.702229 0.510821
vt 0.773849 0.510821
vt 0.773849 0.390747
vt 0.735596 0.441591
vt 0.749194 0.441591
vt 0.749194 0.450616
vt 0.735596 0.450616
vt 0.735596 0.446104
vt 0.617106 0.378575
vt 0.617106 0.520839
vt 0.417073 0.520839
vt 0.417073 0.378575
vt 0.669635 0.603583
vt 0.415961 0.603583
vt 0.415961 0.534091
vt 0.669635 0.534091
vt 0.773284 0.387030
vt 0.773284 0.510657
vt 0.705339 0.510657
vt 0.705339 0.387030
vt 0.669635 0.607691
vt 0.669635 0.607142
vt 0.676806 0.606609
vt 0.677123 0.607142
vt 0.669635 0.605634
vt 0.676806 0.605547
vt 0.677123 0.603583
vt 0.682627 0.603583
vt 0.680681 0.605547
vt 0.684630 0.603583
vt 0.682627 0.605634
vt 0.776390 0.414517
vt 0.776390 0.413451
vt 0.777928 0.413496
vt 0.777996 0.414517
vt 0.776390 0.412668
vt 0.777928 0.412945
vt 0.776390 0.412383
vt 0.777996 0.412668
vt 0.779176 0.413451
vt 0.778759 0.413496
vt 0.779606 0.414517
vt 0.779176 0.414517
vt 0.684630 0.534091
vt 0.682627 0.534091
vt 0.680681 0.532127
vt 0.682627 0.532040
vt 0.677123 0.534091
vt 0.676806 0.532127
vt 0.669635 0.532040
vt 0.669635 0.530532
vt 0.676806 0.531065
vt 0.669635 0.529983
vt 0.677123 0.530532
vt 0.779606 0.450616
vt 0.779176 0.451682
vt 0.778759 0.451637
vt 0.779176 0.450616
vt 0.777996 0.452465
vt 0.777928 0.452188
vt 0.776390 0.452750
vt 0.776390 0.452465
vt 0.776390 0.451682
vt 0.777928 0.451637
vt 0.777996 0.450616
vt 0.415961 0.607691
vt 0.408473 0.607142
vt 0.408790 0.606609
vt 0.415961 0.607142
vt 0.402969 0.605634
vt 0.404915 0.605547
vt 0.400966 0.603583
vt 0.402969 0.603583
vt 0.408473 0.603583
vt 0.408790 0.605547
vt 0.415961 0.605634
vt 0.718782 0.414517
vt 0.719212 0.413451
vt 0.719629 0.413496
vt 0.719212 0.414517
vt 0.720392 0.412668
vt 0.720460 0.412945
vt 0.721998 0.412383
vt 0.721998 0.412668
vt 0.721998 0.413451
vt 0.720460 0.413496
vt 0.721998 0.414517
vt 0.720392 0.414517
vt 0.400966 0.534091
vt 0.402969 0.532040
vt 0.404915 0.532127
vt 0.402969 0.534091
vt 0.408473 0.530532
vt 0.408790 0.531065
vt 0.415961 0.529983
vt 0.415961 0.530532
vt 0.415961 0.532040
vt 0.408790 0.532127
vt 0.408473 0.534091
vt 0.721998 0.450616
vt 0.721998 0.451682
vt 0.720460 0.451637
vt 0.720392 0.450616
vt 0.721998 0.452465
vt 0.720460 0.452188
vt 0.721998 0.452750
vt 0.720392 0.452465
vt 0.719212 0.451682
vt 0.719629 0.451637
vt 0.718782 0.450616
vt 0.719212 0.450616
vt 0.138215 0.541162
vt 0.138215 0.569108
vt 0.138215 0.625000
vt 0.138215 0.680892
vt 0.138215 0.708838
vt 0.333838 0.513215
vt 0.305892 0.513215
vt 0.250000 0.513215
vt 0.194108 0.513215
vt 0.166162 0.513215
vt 0.776674 0.387030
vt 0.776674 0.510657
vt 0.779165 0.387030
vt 0.779165 0.510657
vt 0.780072 0.387030
vt 0.780072 0.510657
vt 0.695636 0.390747
vt 0.695636 0.510821
vt 0.696517 0.510821
vt 0.696517 0.390747
vt 0.698937 0.510821
vt 0.698937 0.390747
vt 0.698551 0.510657
vt 0.698551 0.387030
vt 0.699458 0.387030
vt 0.699458 0.510657
vt 0.701950 0.387030
vt 0.701950 0.510657
vt 0.780442 0.510821
vt 0.780442 0.390747
vt 0.779561 0.390747
vt 0.779561 0.510821
vt 0.777141 0.390747
vt 0.777141 0.510821
vt 0.166162 0.736785
vt 0.194108 0.736785
vt 0.250000 0.736785
vt 0.305892 0.736785
vt 0.333838 0.736785
vt 0.361785 0.708838
vt 0.361785 0.680892
vt 0.361785 0.625000
vt 0.361785 0.569108
vt 0.361785 0.541162
vt 0.669506 0.618577
vt 0.669506 0.733318
vt 0.416281 0.733318
vt 0.416281 0.618577
vt 0.735596 0.423542
vt 0.749194 0.423542
vt 0.749194 0.432566
vt 0.735596 0.432566
vt 0.762792 0.423542
vt 0.769591 0.423542
vt 0.776390 0.423542
vt 0.776390 0.432566
vt 0.762792 0.432566
vt 0.749194 0.414517
vt 0.762792 0.414517
vt 0.762792 0.419029
vt 0.769591 0.419029
vt 0.772991 0.419029
vt 0.776390 0.419029
vt 0.721998 0.423542
vt 0.728797 0.423542
vt 0.721998 0.432566
vt 0.728797 0.419029
vt 0.735596 0.419029
vt 0.735596 0.414517
vt 0.728797 0.446104
vt 0.728797 0.450616
vt 0.728797 0.448360
vt 0.728797 0.441591
vt 0.721998 0.441591
vt 0.762792 0.441591
vt 0.762792 0.446104
vt 0.762792 0.450616
vt 0.776390 0.441591
vt 0.769591 0.441591
vt 0.152189 0.736785
vt 0.152189 0.736785
vt 0.166162 0.736785
vt 0.725397 0.446104
vt 0.721998 0.446104
vt 0.721998 0.419029
vt 0.725397 0.419029
vt 0.725397 0.416773
vt 0.728797 0.416773
vt 0.728797 0.414517
vt 0.769591 0.414517
vt 0.769591 0.416773
vt 0.772991 0.416773
vt 0.776390 0.416773
vt 0.361785 0.722812
vt 0.361785 0.527188
vt 0.347812 0.736785
vt 0.347811 0.513215
vt 0.152189 0.513215
vt 0.138215 0.527188
vt 0.138215 0.722812
vt 0.769591 0.446104
vt 0.769591 0.448360
vt 0.769591 0.450616
vt 0.776390 0.446104
vt 0.772991 0.446104
vt 0.721998 0.416773
vt 0.721998 0.448360
vt 0.772991 0.414517
vt 0.725397 0.414517
vt 0.725397 0.450616
vt 0.347811 0.527188
vt 0.333838 0.527188
vt 0.333838 0.527188
vt 0.347811 0.527188
vt 0.347811 0.513215
vt 0.725397 0.448360
vt 0.152189 0.722812
vt 0.152189 0.722812
vt 0.862758 0.421416
vt 0.878778 0.421416
vt 0.878778 0.415862
vt 0.862758 0.415862
vt 0.862758 0.421416
vt 0.878778 0.421416
vt 0.878778 0.415862
vt 0.862758 0.415862
vt 0.862758 0.421416
vt 0.862758 0.415862
vt 0.878778 0.421416
vt 0.878778 0.415862
vt 0.333838 0.513215
vt 0.166162 0.513215
vt 0.152189 0.513215
vt 0.166162 0.722812
vt 0.166162 0.722812
vt 0.333838 0.736785
vt 0.347812 0.736785
vt 0.347812 0.722812
vt 0.347812 0.722812
vt 0.166162 0.527188
vt 0.166162 0.527188
vt 0.152189 0.527188
vt 0.152189 0.527188
vt 0.333838 0.722812
vt 0.333838 0.722812
vt 0.840112 0.450685
vt 0.843511 0.450685
vt 0.843511 0.452942
vt 0.840112 0.452942
vt 0.859890 0.442033
vt 0.863290 0.442033
vt 0.863290 0.444289
vt 0.859890 0.444289
vt 0.828098 0.424205
vt 0.831497 0.424205
vt 0.831497 0.426462
vt 0.828098 0.426462
vt 0.855627 0.438671
vt 0.859027 0.438671
vt 0.859027 0.440928
vt 0.855627 0.440928
vt 0.878778 0.421416
vt 0.878778 0.415862
vt 0.872035 0.481873
vt 0.856015 0.481873
vt 0.856015 0.476320
vt 0.872035 0.476320
vt 0.872035 0.481873
vt 0.872035 0.476320
vt 0.856015 0.481873
vt 0.856015 0.481873
vt 0.856015 0.476320
vt 0.856015 0.476320
vt 0.862758 0.421416
vt 0.862758 0.415862
vt 0.872035 0.481873
vt 0.872035 0.476320
vt 0.872035 0.481873
vt 0.872035 0.476320
vt 0.856015 0.481873
vt 0.856015 0.476320
vn 0.0000 -1.0000 0.0000
vn -1.0000 0.0000 0.0000
vn 0.0000 0.0000 1.0000
vn 0.0000 1.0000 0.0000
vn 1.0000 0.0000 0.0000
vn 0.1743 0.2440 -0.9540
vn 0.1517 0.6727 -0.7242
vn 0.1854 0.9421 -0.2793
vn 0.5603 0.7843 -0.2664
vn 0.8702 0.3354 -0.3610
vn 0.5372 0.2373 -0.8094
vn 0.4373 0.6121 -0.6589
vn 0.1854 -0.9421 -0.2793
vn 0.1517 -0.6727 -0.7242
vn 0.1743 -0.2440 -0.9540
vn 0.5372 -0.2373 -0.8094
vn 0.8702 -0.3354 -0.3610
vn 0.5603 -0.7843 -0.2664
vn 0.4373 -0.6121 -0.6589
vn 0.8702 0.3354 0.3610
vn 0.5603 0.7843 0.2664
vn 0.1854 0.9421 0.2793
vn 0.1517 0.6727 0.7242
vn 0.1743 0.2440 0.9540
vn 0.5372 0.2373 0.8094
vn 0.4373 0.6121 0.6589
vn 0.8702 -0.3354 0.3610
vn 0.5372 -0.2373 0.8094
vn 0.1743 -0.2440 0.9540
vn 0.1517 -0.6727 0.7242
vn 0.1854 -0.9421 0.2793
vn 0.5603 -0.7843 0.2664
vn 0.4373 -0.6121 0.6589
vn -0.1743 0.2440 -0.9540
vn -0.5372 0.2373 -0.8094
vn -0.8702 0.3354 -0.3610
vn -0.5603 0.7843 -0.2664
vn -0.1854 0.9421 -0.2793
vn -0.1517 0.6727 -0.7242
vn -0.4373 0.6121 -0.6589
vn -0.8702 -0.3354 -0.3610
vn -0.5372 -0.2373 -0.8094
vn -0.1743 -0.2440 -0.9540
vn -0.1517 -0.6727 -0.7242
vn -0.1854 -0.9421 -0.2793
vn -0.5603 -0.7843 -0.2664
vn -0.4373 -0.6121 -0.6589
vn -0.8702 0.3354 0.3610
vn -0.5372 0.2373 0.8094
vn -0.1743 0.2440 0.9540
vn -0.1517 0.6727 0.7242
vn -0.1854 0.9421 0.2793
vn -0.5603 0.7843 0.2664
vn -0.4373 0.6121 0.6589
vn -0.1854 -0.9421 0.2793
vn -0.1517 -0.6727 0.7242
vn -0.1743 -0.2440 0.9540
vn -0.5372 -0.2373 0.8094
vn -0.8702 -0.3354 0.3610
vn -0.5603 -0.7843 0.2664
vn -0.4373 -0.6121 0.6589
vn -0.5813 -0.8137 0.0000
vn -0.9365 -0.3507 0.0000
vn 0.0000 0.0000 -1.0000
vn 0.0000 -0.6806 -0.7327
vn 0.0000 -0.2412 -0.9705
vn 0.9275 0.0000 -0.3739
vn 0.5530 0.0000 -0.8332
vn 0.1748 0.0000 -0.9846
vn -0.1748 0.0000 0.9846
vn -0.5530 0.0000 0.8332
vn -0.9275 0.0000 0.3739
vn 0.1748 0.0000 0.9846
vn 0.5530 0.0000 0.8332
vn 0.9275 0.0000 0.3739
vn -0.1748 0.0000 -0.9846
vn -0.5530 0.0000 -0.8332
vn -0.9275 0.0000 -0.3739
vn 0.0000 0.9609 0.2768
vn 0.0000 0.6806 0.7327
vn 0.0000 0.2412 0.9705
vn 0.1878 0.9822 0.0000
vn 0.5813 0.8137 0.0000
vn 0.9365 0.3507 0.0000
vn 0.0000 -0.6806 0.7327
vn 0.0000 -0.2412 0.9705
vn -0.1878 0.9822 0.0000
vn -0.5813 0.8137 0.0000
vn -0.9365 0.3507 0.0000
vn 0.0000 0.9609 -0.2768
vn 0.0000 0.6806 -0.7327
vn 0.0000 0.2412 -0.9705
vn 0.5813 -0.8137 0.0000
vn 0.9365 -0.3507 0.0000
vn -0.1878 -0.9822 0.0000
vn 0.0000 -0.9609 -0.2768
vn 0.0000 -0.9609 0.2768
vn 0.1878 -0.9822 0.0000
usemtl Material
s off
f 157/1/1 143/2/1 47/3/1 140/4/1
f 95/5/2 81/6/2 58/7/2 69/8/2
f 116/9/1 107/10/1 6/11/1 108/12/1 130/13/1
f 46/14/3 35/15/3 82/16/3 94/17/3
f 10/18/4 59/19/4 83/20/4 34/21/4
f 23/22/5 11/23/5 33/24/5 45/25/5
f 9/26/6 12/27/6 14/28/6 13/29/6
f 12/27/7 16/30/7 17/31/7 14/28/7
f 10/18/8 15/32/8 17/31/8 16/30/8
f 15/32/9 19/33/9 20/34/9 17/31/9
f 11/35/10 18/36/10 20/34/10 19/33/10
f 18/36/11 13/29/11 14/28/11 20/34/11
f 14/28/12 17/31/12 20/34/12
f 21/37/13 24/38/13 26/39/13 25/40/13
f 24/38/14 28/41/14 29/42/14 26/39/14
f 22/43/15 27/44/15 29/42/15 28/41/15
f 27/44/16 31/45/16 32/46/16 29/42/16
f 23/47/17 30/48/17 32/46/17 31/45/17
f 30/48/18 25/40/18 26/39/18 32/46/18
f 26/39/19 29/42/19 32/46/19
f 33/49/20 36/50/20 38/51/20 37/52/20
f 36/50/21 40/53/21 41/54/21 38/51/21
f 34/21/22 39/55/22 41/54/22 40/53/22
f 39/55/23 43/56/23 44/57/23 41/54/23
f 35/58/24 42/59/24 44/57/24 43/56/24
f 42/59/25 37/52/25 38/51/25 44/57/25
f 38/51/26 41/54/26 44/57/26
f 45/60/27 48/61/27 50/62/27 49/63/27
f 48/61/28 52/64/28 53/65/28 50/62/28
f 46/66/29 51/67/29 53/65/29 52/64/29
f 51/67/30 55/68/30 56/69/30 53/65/30
f 47/3/31 54/70/31 56/69/31 55/68/31
f 54/70/32 49/63/32 50/62/32 56/69/32
f 50/62/33 53/65/33 56/69/33
f 57/71/34 60/72/34 62/73/34 61/74/34
f 60/72/35 64/75/35 65/76/35 62/73/35
f 58/77/36 63/78/36 65/76/36 64/75/36
f 63/78/37 67/79/37 68/80/37 65/76/37
f 59/19/38 66/81/38 68/80/38 67/79/38
f 66/81/39 61/74/39 62/73/39 68/80/39
f 62/73/40 65/76/40 68/80/40
f 69/82/41 72/83/41 74/84/41 73/85/41
f 72/83/42 76/86/42 77/87/42 74/84/42
f 70/88/43 75/89/43 77/87/43 76/86/43
f 75/89/44 79/90/44 80/91/44 77/87/44
f 71/92/45 78/93/45 80/91/45 79/90/45
f 78/93/46 73/85/46 74/84/46 80/91/46
f 74/84/47 77/87/47 80/91/47
f 81/94/48 84/95/48 86/96/48 85/97/48
f 84/95/49 88/98/49 89/99/49 86/96/49
f 82/100/50 87/101/50 89/99/50 88/98/50
f 87/101/51 91/102/51 92/103/51 89/99/51
f 83/20/52 90/104/52 92/103/52 91/102/52
f 90/104/53 85/97/53 86/96/53 92/103/53
f 86/96/54 89/99/54 92/103/54
f 93/105/55 96/106/55 98/107/55 97/108/55
f 96/106/56 100/109/56 101/110/56 98/107/56
f 94/111/57 99/112/57 101/110/57 100/109/57
f 99/112/58 103/113/58 104/114/58 101/110/58
f 95/115/59 102/116/59 104/114/59 103/113/59
f 102/116/60 97/108/60 98/107/60 104/114/60
f 98/107/61 101/110/61 104/114/61
f 120/117/4 2/118/4 8/119/4 110/120/4 121/121/4
f 78/93/62 97/108/62 102/116/62 73/85/62
f 73/85/63 102/116/63 95/115/63 69/82/63
f 118/122/64 3/123/64 7/124/64 111/125/64 122/126/64
f 24/38/65 79/90/65 75/89/65 28/41/65
f 28/41/66 75/89/66 70/88/66 22/43/66
f 11/23/67 23/22/67 31/127/67 18/128/67
f 18/128/68 31/127/68 27/129/68 13/130/68
f 13/130/69 27/129/69 22/131/69 9/132/69
f 94/133/70 82/134/70 88/135/70 99/136/70
f 99/136/71 88/135/71 84/137/71 103/138/71
f 103/138/72 84/137/72 81/6/72 95/5/72
f 35/139/73 46/140/73 52/141/73 42/142/73
f 42/142/74 52/141/74 48/143/74 37/144/74
f 37/144/75 48/143/75 45/25/75 33/24/75
f 57/145/76 70/146/76 76/147/76 60/148/76
f 60/148/77 76/147/77 72/149/77 64/150/77
f 64/150/78 72/149/78 69/8/78 58/7/78
f 34/21/79 83/20/79 91/102/79 39/55/79
f 39/55/80 91/102/80 87/101/80 43/56/80
f 43/56/81 87/101/81 82/100/81 35/58/81
f 10/18/82 34/21/82 40/53/82 15/32/82
f 15/32/83 40/53/83 36/50/83 19/33/83
f 19/33/84 36/50/84 33/49/84 11/35/84
f 125/151/3 108/152/3 6/153/3 112/154/3 123/155/3
f 96/106/85 55/68/85 51/67/85 100/109/85
f 100/109/86 51/67/86 46/66/86 94/111/86
f 83/20/87 59/19/87 67/79/87 90/104/87
f 90/104/88 67/79/88 63/78/88 85/97/88
f 85/97/89 63/78/89 58/77/89 81/94/89
f 59/19/90 10/18/90 16/30/90 66/81/90
f 66/81/91 16/30/91 12/27/91 61/74/91
f 61/74/92 12/27/92 9/26/92 57/71/92
f 119/156/4 105/157/4 5/158/4 113/159/4 124/160/4
f 54/70/93 25/40/93 30/48/93 49/63/93
f 49/63/94 30/48/94 23/47/94 45/60/94
f 70/161/64 57/162/64 9/163/64 22/164/64
f 115/165/1 106/166/1 4/167/1 1/168/1
f 114/169/1 127/170/1 113/171/1 5/172/1 109/173/1
f 106/166/1 114/169/1 109/173/1 4/167/1
f 7/174/1 3/175/1 126/176/1 114/169/1 106/166/1
f 136/177/1 151/178/1 124/179/1 113/171/1 127/170/1
f 2/180/1 129/181/1 115/165/1 1/168/1 8/182/1
f 135/183/1 128/184/1 115/165/1 129/181/1
f 111/185/1 7/174/1 106/166/1 115/165/1 128/184/1
f 134/186/1 130/13/1 108/12/1 125/187/1 146/188/1
f 8/182/1 1/168/1 116/9/1 131/189/1 110/190/1
f 1/168/1 4/167/1 107/10/1 116/9/1
f 107/10/1 117/191/1 132/192/1 112/193/1 6/11/1
f 4/167/1 109/173/1 117/191/1 107/10/1
f 109/173/1 5/172/1 105/194/1 133/195/1 117/191/1
f 125/151/3 145/196/3 160/197/3 161/198/3
f 110/190/1 131/189/1 134/186/1 147/199/1 121/200/1
f 131/189/1 116/9/1 130/13/1 134/186/1
f 120/201/1 149/202/1 135/183/1 129/181/1 2/180/1
f 155/203/1 148/204/1 135/183/1 149/202/1
f 122/205/1 111/185/1 128/184/1 135/183/1 148/204/1
f 126/176/1 136/177/1 127/170/1 114/169/1
f 3/175/1 118/206/1 150/207/1 136/177/1 126/176/1
f 154/208/1 141/209/1 124/179/1 151/178/1
f 143/210/4 119/156/4 124/160/4 141/211/4
f 145/196/64 125/151/64 123/155/64 140/212/64
f 142/213/3 118/122/3 122/126/3 139/214/3
f 144/215/4 120/117/4 121/121/4 138/216/4
f 132/192/1 137/217/1 152/218/1 123/219/1 112/193/1
f 117/191/1 133/195/1 137/217/1 132/192/1
f 133/195/1 105/194/1 119/220/1 153/221/1 137/217/1
f 71/92/95 144/222/95 138/223/95 93/105/95 97/108/95 78/93/95
f 21/37/96 142/224/96 139/225/96 71/92/96 79/90/96 24/38/96
f 93/105/97 145/226/97 140/4/97 47/3/97 55/68/97 96/106/97
f 47/3/98 143/2/98 141/209/98 21/37/98 25/40/98 54/70/98
f 150/207/1 154/208/1 151/178/1 136/177/1
f 154/227/3 150/228/3 169/229/3 170/230/3
f 142/224/1 21/37/1 141/209/1 154/208/1
f 144/222/1 155/203/1 149/202/1 120/201/1
f 71/92/1 139/225/1 155/203/1 144/222/1
f 142/213/3 154/227/3 170/230/3 158/231/3
f 138/223/1 156/232/1 145/226/1 93/105/1
f 121/200/1 147/199/1 156/232/1 138/223/1
f 147/199/1 134/186/1 146/188/1 156/232/1
f 145/196/3 156/233/3 172/234/3 160/197/3
f 137/217/1 153/221/1 157/1/1 152/218/1
f 153/221/1 119/220/1 143/2/1 157/1/1
f 163/235/64 173/236/64 189/237/64 179/238/64
f 159/239/64 158/240/64 174/241/64 175/242/64
f 169/243/2 159/239/2 175/242/2 185/244/2
f 173/236/5 167/245/5 183/246/5 189/237/5
f 118/122/3 142/213/3 158/231/3 159/247/3
f 139/214/3 122/126/3 165/248/3 166/249/3
f 156/233/3 146/250/3 162/251/3 172/234/3
f 140/212/3 123/155/3 164/252/3 167/253/3
f 146/250/3 125/151/3 161/198/3 162/251/3
f 157/254/3 140/212/3 167/253/3 173/255/3
f 122/126/3 148/256/3 168/257/3 165/248/3
f 155/258/3 139/214/3 166/249/3 171/259/3
f 123/155/3 152/260/3 163/261/3 164/252/3
f 152/260/3 157/254/3 173/255/3 163/261/3
f 150/228/3 118/122/3 159/247/3 169/229/3
f 148/256/3 155/258/3 171/259/3 168/257/3
f 188/262/1 178/263/1 177/264/1 176/265/1
f 175/266/1 174/267/1 186/268/1 185/269/1
f 182/270/1 181/271/1 184/272/1 187/273/1
f 179/274/1 189/275/1 183/276/1 180/277/1
f 158/240/5 170/278/5 186/279/5 174/241/5
f 161/280/3 160/281/3 176/282/3 177/283/3
f 170/278/3 169/243/3 185/244/3 186/279/3
f 162/284/5 161/280/5 177/283/5 178/285/5
f 171/286/2 166/287/2 182/288/2 187/289/2
f 164/290/2 163/235/2 179/238/2 180/291/2
f 168/292/3 171/286/3 187/289/3 184/293/3
f 166/287/64 165/294/64 181/295/64 182/288/64
f 160/281/2 172/296/2 188/297/2 176/282/2
f 167/245/3 164/290/3 180/291/3 183/246/3
f 172/296/64 162/284/64 178/285/64 188/297/64
f 165/294/5 168/292/5 184/293/5 181/295/5
