# Blender v2.93.0 OBJ File: 'Alfombra.blend'
# www.blender.org
mtllib Alfombra.mtl
o Plane
v -0.712420 0.000000 0.455946
v 0.712420 0.000000 0.455946
v -0.712420 0.000000 -0.455946
v 0.712420 0.000000 -0.455946
v -0.712420 0.004892 -0.455946
v -0.712420 0.004892 0.455946
v 0.712420 0.004892 0.455946
v 0.712420 0.004892 -0.455946
vt 0.141812 0.281538
vt 0.141812 0.718566
vt 0.850527 0.718566
vt 0.850527 0.281538
vt 0.141409 0.281574
vt 0.849598 0.281574
vt 0.849598 0.718246
vt 0.141409 0.718246
vt 0.140712 0.712891
vt 0.851443 0.712891
vt 0.851443 0.718622
vt 0.140712 0.718622
vt 0.140654 0.281351
vt 0.851488 0.281351
vt 0.851488 0.288644
vt 0.140654 0.288644
vt 0.843772 0.718674
vt 0.843772 0.281501
vt 0.851416 0.281501
vt 0.851416 0.718674
vt 0.140758 0.718765
vt 0.140758 0.281423
vt 0.148126 0.281423
vt 0.148126 0.718765
vn 0.0000 -1.0000 0.0000
vn 0.0000 1.0000 0.0000
vn 0.0000 0.0000 -1.0000
vn 0.0000 0.0000 1.0000
vn 1.0000 0.0000 0.0000
vn -1.0000 0.0000 0.0000
usemtl Material.001
s off
f 1/1/1 3/2/1 4/3/1 2/4/1
f 6/5/2 7/6/2 8/7/2 5/8/2
f 4/9/3 3/10/3 5/11/3 8/12/3
f 1/13/4 2/14/4 7/15/4 6/16/4
f 2/17/5 4/18/5 8/19/5 7/20/5
f 3/21/6 1/22/6 6/23/6 5/24/6
